# xmcd
#
# Track frame offsets:
#	150
#	15989
#	30917
#	43664
#	56900
#	69688
#	88962
#	107166
#	127155
#	140264
#	154814
#	169210
#	180239
#	187284
#	198263
#	215041
#	241441
#	257014
#	281359
#	294705
#	307553
#	320371
#
# Disc length: 4528 seconds
#
# Revision: 1
# Processed by: cddbd v1.5.1PL2 Copyright (c) Steve Scherf et al.
# Submitted via: audiograbber 1.83.01
#
DISCID=4311ae16
DTITLE=Solomon Burke - That's Heavy Baby - The Best of the MGM Years 1971-1973
DYEAR=2005
DGENRE=Soul
TTITLE0=The Electronic Magnetism (That's Heavy Baby)
TTITLE1=Three Psalms of Elton: Your Song, Border Song, and Take Me to the Pilot
TTITLE2=You Can Run But You Can't Hide
TTITLE3=Stand
TTITLE4=Bridge of Life
TTITLE5=PSR 1983
TTITLE6=Lookin' Out My Back Door
TTITLE7=J.C. I Know Who You Are
TTITLE8=The Night They Drove Old Dixie Down
TTITLE9=Get Up and Do Something for Yourself
TTITLE10=Love's Street and Fool's Road
TTITLE11=It Must Be Love
TTITLE12=Then I Want to Come Home (vocal)
TTITLE13=We're Almost Home
TTITLE14=I've Got to Do My Own Thing
TTITLE15=Drown in My Own Tears
TTITLE16=Everybody Wants to Fall in Love
TTITLE17=I Can't Stop Loving You
TTITLE18=Sweet, Sweet Reason
TTITLE19=Misty
TTITLE20=Georgia Up North
TTITLE21=Here Comes the Train
EXTD=
EXTT0=
EXTT1=
EXTT2=
EXTT3=
EXTT4=
EXTT5=
EXTT6=
EXTT7=
EXTT8=
EXTT9=
EXTT10=
EXTT11=
EXTT12=
EXTT13=
EXTT14=
EXTT15=
EXTT16=
EXTT17=
EXTT18=
EXTT19=
EXTT20=
EXTT21=
PLAYORDER=
